<?xml version="1.0" standalone="no"?>
<!DOCTYPE svg PUBLIC "-//W3C//DTD SVG 20010904//EN"
 "http://www.w3.org/TR/2001/REC-SVG-20010904/DTD/svg10.dtd">
<svg version="1.0" xmlns="http://www.w3.org/2000/svg"
 width="512.000000pt" height="512.000000pt" viewBox="0 0 512.000000 512.000000"
 preserveAspectRatio="xMidYMid meet">
<metadata>
Created by potrace 1.11, written by Peter Selinger 2001-2013
</metadata>
<g transform="translate(0.000000,512.000000) scale(0.100000,-0.100000)"
fill="#000000" stroke="none">
<path d="M2507 4963 c-4 -3 -58 -12 -119 -19 -101 -11 -151 -19 -183 -29 -5
-1 -12 -3 -15 -3 -3 -1 -22 -8 -42 -16 -21 -9 -51 -16 -67 -16 -16 0 -31 -6
-35 -15 -3 -9 -18 -15 -34 -15 -16 0 -35 -6 -41 -14 -7 -8 -26 -18 -42 -21
-17 -4 -33 -13 -36 -21 -3 -8 -13 -14 -23 -14 -10 0 -25 -7 -34 -15 -8 -8 -22
-15 -30 -15 -9 0 -16 -4 -16 -9 0 -8 -56 -47 -84 -60 -5 -2 -22 -17 -37 -32
-16 -16 -35 -29 -44 -29 -8 0 -15 -7 -15 -15 0 -8 -6 -15 -14 -15 -14 0 -65
-49 -189 -179 -33 -33 -63 -61 -68 -61 -5 0 -9 -4 -9 -10 0 -5 -8 -18 -17 -29
-10 -10 -27 -31 -38 -45 -11 -15 -27 -35 -35 -44 -29 -33 -100 -144 -100 -158
0 -7 -5 -16 -10 -19 -6 -4 -17 -23 -26 -43 -8 -20 -18 -39 -22 -42 -7 -5 -26
-51 -45 -110 -6 -19 -17 -41 -24 -48 -7 -7 -13 -23 -13 -35 0 -12 -13 -59 -29
-104 -16 -45 -32 -105 -36 -133 -4 -27 -11 -50 -16 -50 -5 0 -9 -10 -9 -23 0
-12 -12 -72 -26 -132 -14 -61 -31 -153 -38 -205 -7 -52 -17 -106 -23 -120 -5
-14 -13 -66 -17 -116 -3 -50 -11 -106 -17 -125 -5 -19 -12 -99 -16 -179 -3
-80 -10 -151 -16 -158 -7 -9 -13 -140 -18 -350 -4 -185 -13 -411 -20 -500 -10
-132 -10 -186 1 -275 7 -62 15 -195 19 -296 5 -127 11 -186 19 -189 8 -2 12
-34 13 -90 0 -48 4 -109 9 -137 4 -27 14 -90 21 -140 6 -49 18 -95 24 -100 7
-6 16 -26 20 -45 4 -19 15 -40 24 -47 9 -6 13 -15 9 -19 -4 -4 9 -16 29 -26
27 -15 49 -18 87 -15 64 6 126 28 126 45 0 7 13 15 30 18 16 4 28 10 25 14 -2
4 7 12 20 18 14 7 25 16 25 22 0 5 7 10 15 10 8 0 15 4 15 9 0 5 14 14 30 21
17 7 30 16 30 20 0 4 19 18 42 30 23 12 53 30 66 41 14 10 30 19 38 19 7 0 14
4 16 9 3 9 76 16 133 13 40 -3 92 -54 135 -135 13 -26 30 -49 37 -51 7 -3 13
-12 13 -20 0 -8 9 -18 21 -21 12 -4 18 -12 15 -21 -3 -9 1 -14 13 -14 10 0 32
-7 47 -15 37 -19 135 -19 181 0 19 8 46 15 60 15 13 0 26 7 29 15 3 8 21 17
40 21 19 3 34 10 34 14 0 5 24 20 53 34 30 14 60 32 67 41 7 8 19 15 27 15 7
0 16 6 19 14 3 8 28 23 55 32 27 10 49 21 49 25 0 3 28 16 62 29 84 31 250 34
294 5 42 -27 113 -105 130 -142 8 -18 21 -33 29 -33 8 0 15 -6 15 -14 0 -8 7
-16 15 -20 8 -3 15 -12 15 -21 0 -12 15 -15 85 -15 74 0 86 2 95 20 6 11 17
20 25 20 8 0 23 7 33 15 44 40 111 107 151 154 24 28 49 51 56 51 7 0 23 9 36
21 28 24 89 22 118 -5 10 -9 28 -16 40 -16 50 0 251 -166 251 -207 0 -7 5 -13
10 -13 6 0 13 -7 16 -15 12 -31 92 -103 127 -114 21 -7 37 -17 37 -22 0 -16
97 -11 104 6 3 8 11 15 18 15 19 1 51 31 65 63 7 15 16 27 20 27 5 0 9 17 11
37 1 20 6 40 11 43 17 10 21 51 36 357 17 350 19 694 5 1233 -21 774 -26 922
-37 928 -5 4 -13 61 -16 127 -3 66 -13 152 -21 190 -9 39 -16 92 -16 118 0 26
-6 58 -14 70 -8 12 -17 53 -21 92 -4 38 -12 80 -17 95 -6 14 -12 39 -14 57 -1
18 -10 53 -18 78 -9 25 -16 57 -16 70 0 14 -4 25 -9 25 -5 0 -12 19 -16 43 -3
23 -12 56 -19 72 -7 17 -20 46 -29 65 -8 19 -18 47 -21 63 -4 15 -11 27 -16
27 -6 0 -10 8 -10 18 0 9 -9 32 -20 50 -11 18 -20 37 -20 42 0 6 -9 19 -20 30
-11 11 -20 29 -20 41 0 11 -13 40 -30 64 -16 24 -30 49 -30 55 0 6 -7 13 -15
16 -8 4 -15 10 -15 16 0 5 -6 15 -12 23 -7 7 -21 24 -31 37 -9 14 -33 42 -52
64 -19 21 -35 42 -35 47 0 4 -7 7 -15 7 -8 0 -15 4 -15 9 0 9 -76 91 -85 91
-2 0 -14 10 -27 23 -13 12 -38 33 -57 47 -18 14 -42 33 -53 43 -10 10 -23 15
-28 12 -6 -4 -13 0 -16 9 -3 8 -19 19 -35 25 -16 5 -29 14 -29 20 0 5 -13 12
-29 16 -16 3 -35 13 -42 21 -6 8 -24 14 -40 14 -19 0 -29 5 -29 15 0 10 -10
15 -30 15 -17 0 -43 6 -58 14 -15 8 -46 18 -67 21 -22 4 -44 11 -50 15 -5 4
-48 10 -94 14 -46 4 -92 11 -102 16 -20 11 -382 14 -392 3z m843 -1456 c123
-34 223 -155 256 -307 17 -78 17 -105 3 -184 -11 -63 -17 -78 -60 -155 -26
-49 -86 -109 -128 -128 -64 -30 -119 -46 -156 -46 -66 -1 -178 48 -229 99 -39
39 -92 138 -102 190 -3 22 -11 44 -16 51 -19 24 9 234 35 259 4 5 16 26 26 49
37 83 104 138 216 177 52 18 79 17 155 -5z m-1345 -158 c5 -5 18 -9 28 -9 62
0 187 -115 187 -171 0 -15 7 -34 15 -43 17 -16 22 -142 6 -132 -5 4 -12 -13
-16 -36 -7 -45 -47 -113 -71 -122 -9 -3 -12 -10 -9 -16 3 -5 -2 -10 -11 -10
-10 0 -25 -6 -33 -14 -20 -17 -112 -46 -145 -46 -14 0 -42 8 -63 17 -21 9 -55
24 -75 32 -21 9 -38 19 -38 23 0 4 -13 21 -30 38 -16 16 -34 49 -41 72 -6 24
-18 57 -27 74 -17 36 -14 63 21 159 20 53 37 79 69 108 61 55 62 55 104 63 22
4 48 13 59 20 19 14 51 10 70 -7z"/>
</g>
</svg>
